<svg xmlns="http://www.w3.org/2000/svg" viewBox="0 0 1024 1024">
  <circle cx="512" cy="512" r="512" style="fill:#00ab6b"/>
  <path d="M182.35 654.14c9.198 0 14.454-5.068 17.458-10.262l-7.634-3.692a11.19 11.19 0 0 1-9.824 6.07c-7.571 0-13.078-5.82-13.078-13.704s5.506-13.703 13.078-13.703c4.318 0 8.072 2.69 9.824 6.07l7.634-3.755c-2.94-5.193-8.26-10.199-17.458-10.199-12.515 0-22.213 8.76-22.213 21.588s9.699 21.588 22.213 21.588zm64.043-.743-9.386-15.901c4.513-1.064 9.144-5.006 9.144-12.39 0-7.759-5.32-13.453-14.017-13.453h-19.53v41.736h8.885v-14.83h6.507l8.198 14.83h10.199zm-15.573-22.66h-9.323v-11.262h9.323c3.567 0 6.257 2.127 6.257 5.632s-2.69 5.631-6.257 5.631zm48.932 22.66v-17.09l15.956-24.654h-10.137l-10.262 16.77-10.387-16.77h-10.137l16.081 24.654v17.082h8.885zm36.198 0v-14.838h10.637c9.01 0 14.016-6.195 14.016-13.453 0-7.321-4.943-13.453-14.016-13.453h-19.523v41.736h8.885zm9.449-22.66h-9.449v-11.262h9.44c3.505 0 6.133 2.127 6.133 5.632 0 3.441-2.628 5.631-6.132 5.631zm46.805 22.66v-33.922h12.139v-7.822h-33.29v7.822h12.203v33.915h8.948zm43.59.743c12.64 0 21.838-9.01 21.838-21.588 0-12.577-9.199-21.588-21.838-21.588-12.577 0-21.775 9.01-21.775 21.588 0 12.577 9.198 21.588 21.775 21.588m0-7.884c-7.697 0-12.64-5.944-12.64-13.704 0-7.822 4.943-13.703 12.64-13.703s12.702 5.882 12.702 13.703c0 7.759-5.006 13.704-12.702 13.704m432.09-344.12v16.36h16.62v-16.36zm-45.418 15.277v16.36h16.621v-16.36zm-102.31 8.738a6.234 6.234 0 0 0-6.294 6.187v77.116c0 3.41 2.83 6.172 6.294 6.172h46.96a1.7 1.7 0 0 0 .169.336l11.09 17.018c.54.83 1.252 1.215 1.971 1.192.704.023 1.424-.363 1.956-1.192l11.12-17.018a1.7 1.7 0 0 0 .153-.32h46.976a6.234 6.234 0 0 0 6.279-6.188v-50.566h-16.621v-16.376h-16.621v-16.36zm97.312 26.215a3.75 3.75 0 0 1 3.04 1.268l3.117 3.59a3.614 3.614 0 0 1-.412 5.179l-28.567 24.122a4.36 4.36 0 0 1-2.811.977 4.3 4.3 0 0 1-1.406-.229 3.1 3.1 0 0 1-1.115-.519l-14.223-10.083-.122.107a6 6 0 0 1-.535.52l-1.726 1.39-.26.213c-.015.016-.112.083-.122.092L731 396.225a4 4 0 0 1-2.49.855 4 4 0 0 1-1.802-.412 3 3 0 0 1-.596-.351l-.122-.092a3 3 0 0 1-.122-.107 4 4 0 0 1-.153-.138l-6.202-6.05-.016-.015-.55-.535.016-.015-14.864-14.497a3.614 3.614 0 0 1-.016-5.18l3.377-3.345a3.7 3.7 0 0 1 2.642-1.084c.994 0 1.909.366 2.613 1.054l13.657 13.306.015-.016s1.887 1.84 2.215 2.185a3 3 0 0 1 .352.413.13.13 0 0 1 .016.063l15.277-12.344.367-.29.26-.214h.015l1.62-1.314 1.634-1.313 3.926-3.178a3 3 0 0 1 .504-.336 3 3 0 0 1 .32-.153 4.4 4.4 0 0 1 1.971-.442c.939 0 1.832.278 2.536.779l11.457 8.112s1.466 1.009 1.818 1.283c.23.162.447.367.657.58h.016l23.908-20.18a3.75 3.75 0 0 1 2.215-.886zm-52.582 17.05 10.19 7.24.015-.015zm86.374-35.64v16.376h16.621v-16.377zm-279.64 77.803q-2.414-.001-5.392.214c-1.974.149-3.777.362-5.393.642v159.23a54 54 0 0 0 5.393.657c1.986.133 3.789.213 5.408.213q2.429 0 5.515-.213a54 54 0 0 0 5.514-.657v-159.23c-1.619-.282-3.457-.493-5.514-.642a82 82 0 0 0-5.53-.214zm-341.02 1.375c-19.085 0-51.1 6.178-51.1 47.632 0 38.873 42.308 39.558 44.608 39.566 1.94.157 31.775 2.953 31.775 26.566 0 28.455-17.325 30.843-33.578 30.843-9.972 0-26.704-3.466-26.704-26.688v-2.628l-16.102-.015v29.377l1.085.779c.806.57 19.892 14.009 40.987 14.009 36.723 0 56.126-17.721 56.126-51.268 0-38.678-40.069-42.894-50.902-43.324v-.047h-1.894l-.29-.015h-.474c-.696 0-6.978-.079-13-2.995-7.548-3.637-11.381-10.106-11.381-19.218 0-27.258 25.149-28.628 30.187-28.628 13.57 0 21.63 7.84 23.969 23.343l.336 2.23 14.727.032v-33.318l-1.833-.596c-.712-.219-17.77-5.637-36.542-5.637m439.42.168c-1.587 0-3.36.07-5.3.214q-2.921.209-5.301.641v152.75q6.92 2.345 16.972 4.14 10.056 1.818 19.585 1.818c20.188 0 35.656-5.29 46.395-15.872s16.102-25.248 16.102-43.997c0-9.378-1.109-17.49-3.346-24.38-2.237-6.884-5.375-12.576-9.41-17.05s-8.851-7.772-14.482-9.9c-5.624-2.135-11.768-3.207-18.393-3.207q-11.676-.002-19.89 4.69c-5.483 3.12-9.518 6.812-12.114 11.076v-60.068a52 52 0 0 0-5.408-.642 79 79 0 0 0-5.408-.213zm38.711 63.277c9.66 0 16.576 3.277 20.761 9.808 4.177 6.523 6.28 15.68 6.28 27.467 0 7.102-.971 13.253-2.919 18.439-1.955 5.186-4.581 9.431-7.898 12.77a31.3 31.3 0 0 1-11.778 7.456c-4.544 1.635-9.484 2.444-14.818 2.444a77 77 0 0 1-9.196-.52 41.8 41.8 0 0 1-8.326-1.817V506.63c0-5.53.832-10.235 2.49-14.146 1.658-3.903 3.847-7.033 6.584-9.38a26.3 26.3 0 0 1 8.983-5.104c3.246-1.063 6.522-1.604 9.838-1.604zm-394.26-42.607-37.199 38.696.856 2.98h16.881v64.207c0 11.506 2.91 19.736 8.754 24.702 5.834 4.975 13.956 7.47 24.336 7.47 3.597 0 6.983-.19 10.159-.535a71 71 0 0 0 9.09-1.604c0-2.268-.11-4.91-.322-7.882a33.3 33.3 0 0 0-1.848-8.739 73 73 0 0 1-5.836 1.177 43 43 0 0 1-6.92.535c-3.183 0-5.81-.32-7.898-.963-2.096-.633-3.745-1.918-4.965-3.834-1.228-1.916-2.096-4.645-2.597-8.204q-.762-5.315-.763-14.268v-52.063h28.124a45 45 0 0 0 .641-4.247 46 46 0 0 0 .214-4.49c0-2.973-.277-5.665-.856-8.082h-28.124v-24.855zm529.21.031-37.199 38.665.856 2.98h16.865l.016.015v64.208c0 11.513 2.91 19.751 8.753 24.718 5.843 4.974 13.956 7.47 24.336 7.47 3.606 0 6.991-.198 10.16-.55a72 72 0 0 0 9.089-1.588c0-2.269-.102-4.895-.321-7.883a32.8 32.8 0 0 0-1.848-8.738c-1.73.43-3.67.824-5.836 1.176-2.159.36-4.472.535-6.92.535q-4.765 0-7.898-.962c-2.089-.642-3.753-1.919-4.98-3.835-1.229-1.924-2.09-4.652-2.598-8.203-.5-3.551-.748-8.3-.748-14.268V475.47h28.109a44 44 0 0 0 .657-4.247c.14-1.424.213-2.927.213-4.492q0-4.469-.87-8.081h-28.11v-24.824zm-441.48 24.473q-12.976.001-22.716 4.461a46.2 46.2 0 0 0-16.208 12.145 49.8 49.8 0 0 0-9.639 18.118 78.1 78.1 0 0 0-3.116 22.58 78.1 78.1 0 0 0 3.131 22.578 49.8 49.8 0 0 0 9.625 18.103 45.05 45.05 0 0 0 16.208 12.038c6.492 2.91 14.066 4.37 22.716 4.37s16.224-1.46 22.716-4.354a45.05 45.05 0 0 0 16.224-12.053 49.9 49.9 0 0 0 9.624-18.103 78.4 78.4 0 0 0 3.131-22.58c0-8.095-1.043-15.617-3.131-22.578a49.9 49.9 0 0 0-9.624-18.118c-4.334-5.108-9.732-9.158-16.224-12.145-6.492-2.98-14.066-4.461-22.716-4.461zm.016 17.248c9.933 0 17.296 3.51 22.059 10.541 4.755 7.032 7.134 16.875 7.134 29.514 0 12.64-2.378 22.504-7.15 29.606-4.755 7.102-12.11 10.648-22.059 10.648s-17.26-3.545-21.937-10.648c-4.693-7.102-7.042-16.966-7.042-29.606s2.334-22.483 7.027-29.514c4.678-7.031 12.011-10.54 21.968-10.54zm116.39-19.45c-8.948 0-16.79 1.488-23.572 4.46-6.782 2.996-12.451 7.03-16.988 12.145a51 51 0 0 0-10.266 18.118c-2.315 6.961-3.453 14.483-3.453 22.58 0 17.473 4.669 31.35 14.054 41.643 9.363 10.301 23.277 15.445 41.736 15.445 10.95 0 20.7-1.642 29.21-4.904q-.225-4.68-1.529-9.15c-.868-2.988-1.874-5.469-3.024-7.455v-.016c-3.755 1.424-7.46 2.431-11.137 2.994-3.676.563-7.682.84-12.007.84-10.817 0-19.332-3.151-25.527-9.471-6.203-6.312-9.288-16.294-9.288-29.927 0-11.936 2.743-21.516 8.218-28.751q8.212-10.876 24.87-10.877c9.081 0 17.166 1.211 24.23 3.62a36.6 36.6 0 0 0 2.703-8.417c.642-3.191.963-5.993.963-8.417-4.185-1.557-8.57-2.687-13.184-3.407-4.623-.704-9.956-1.054-16.01-1.054zm242.68.794c-.305 1.173-.524 2.523-.672 4.063a45.2 45.2 0 0 0 0 9.014 26 26 0 0 0 .672 4.063h14.498v95.632a52 52 0 0 0 5.469.657c2.002.141 3.753.214 5.24.214a73 73 0 0 0 5.469-.214 53 53 0 0 0 5.469-.657V456.89zm-126.7.275a77.4 77.4 0 0 0-11.702.856l-35.946 53.667 41.919 57.776a91 91 0 0 0 12.343.855 82 82 0 0 0 11.9-.855l-42.118-59.304 35.946-52.124a90 90 0 0 0-6.065-.657 94 94 0 0 0-6.279-.214z" style="fill:#fff"/>
</svg>
