<svg xmlns="http://www.w3.org/2000/svg" viewBox="0 0 100 100" width="100%" height="100%">
  <circle cx="50" cy="50" r="50" fill="#000008" />
  <path fill="#ffffff" d="M 49.009435,76.555554 C 41.08448,73.766479 32.336135,64.726257 28.458952,55.318946 c -0.983904,-2.38674 -0.998679,-2.549669 -0.145067,-1.606012 1.001364,1.10725 1.830127,1.854064 2.625308,2.36413 0.537285,0.344478 0.907342,0.822624 1.48828,1.920565 3.418478,6.459961 8.763793,11.748165 15.549704,15.381145 2.075265,1.110575 2.110858,1.109911 4.412453,-0.157609 6.862475,-3.779284 12.14936,-9.082117 15.389861,-15.439666 0.383487,-0.752798 0.801227,-1.254219 1.413731,-1.69978 0.478184,-0.347138 1.438581,-1.224959 2.134366,-1.950491 2.585013,-2.693978 -1.408358,5.715144 -4.893996,10.307741 -5.018914,6.611585 -14.443567,13.165314 -17.424157,12.116585 M 35.283815,55.989282 C 28.923703,54.288173 25.274194,47.534939 25.030401,37.011733 c -0.171932,-7.408938 0.03827,-7.616424 10.346768,-10.245895 3.812038,-0.972253 8.667753,-2.212508 10.7907,-2.755826 3.861065,-0.988213 3.861065,-0.988213 10.217819,0.631765 3.496384,0.891121 8.23591,2.095464 10.532803,2.676024 7.712057,1.95049 8.087485,2.382086 8.08144,9.295588 C 74.98919,49.28393 69.870202,56.596441 61.232002,56.279894 50.067888,55.870244 48.879815,39.993663 59.847148,37.77118 c 3.653538,-0.740827 8.129123,0.340488 7.9854,1.928545 -0.487587,5.391281 -6.35474,8.977045 -11.709457,7.155569 -3.213638,-1.093286 -1.010096,4.845303 2.37883,6.411414 7.189545,3.321753 13.308551,-3.16215 14.117165,-14.96019 0.4849,-7.077761 0.656832,-6.902197 -9.166083,-9.368076 A 2542.0302,2517.084 0 0 1 53.348684,26.382124 c -3.351315,-0.86053 -3.351315,-0.86053 -4.619979,-0.513393 -0.697128,0.191524 -4.906086,1.26619 -9.353463,2.389401 -10.696674,2.701293 -10.312516,2.582922 -11.076804,3.420176 -2.096755,2.298293 -0.720634,13.295657 2.228389,17.814437 4.13038,6.326293 12.888128,5.917974 14.624901,-0.682306 0.599074,-2.279009 0.452663,-2.517749 -1.200833,-1.95315 -5.149877,1.758301 -10.311843,-1.162448 -11.581851,-6.553064 -0.646085,-2.74186 5.973268,-3.841795 10.344753,-1.71973 10.450195,5.074068 3.892631,20.431938 -7.429982,17.404787 m 8.146587,-11.477504 c 3.985312,-1.31008 -3.15655,-5.437168 -7.586467,-4.384447 -1.067853,0.254035 -1.027557,0.136993 -0.448633,1.286804 1.574916,3.12757 4.506479,4.258095 8.035771,3.097643 m 18.103822,0.02195 c 1.511114,-0.661689 3.079986,-2.36679 3.507128,-3.810538 0.294164,-0.992204 -4.137095,-1.048065 -6.228477,-0.07914 -1.80192,0.834596 -3.445341,2.368786 -3.445341,3.215351 0,0.897771 4.526627,1.393207 6.16669,0.674325" />
</svg>
