<svg xmlns="http://www.w3.org/2000/svg" viewBox="0 0 1024 1024">
  <circle cx="512" cy="512" r="512" style="fill:#bcd85f"/>
  <path d="m729.31 347.37c12.954-5.287 23.375-18.231 25.925-32.211 2.298-12.564 1.489-23.99-2.478-34.935-4.423-12.2-16.147-22.176-25.804-26.646-9.488-4.397-20.29-5.32-27.68-5.32-22.317 0-40.647 11.924-49.03 31.893l-0.154 0.36c-0.428 1.093-4.268 11.377-4.268 27.503v103.91h-126.62c-1.178 6.117-6.356 22.999-6.422 23.196l-1.704 5.336c-9.332 29.34-22.107 69.526-59.407 69.526-12.972 0-24.542-5.662-34.383-16.828-18.998-21.478-24.355-48.18-28.659-69.634-0.35-1.697-0.806-3.464-1.34-5.516l-0.03-0.125c-14.733 6.337-27.539 16.555-34.45 27.54l-0.446 0.505c-0.203 0.208-0.414 0.412-0.633 0.733-6.238 9.237-10.114 23.015-10.114 35.954v161.24a87 87 0 0 1 4.514-1.144c1.95-0.45 3.79-0.818 5.58-1.116a75 75 0 0 1 0.287-7.128c3.316-37.426 32.531-65.648 67.961-65.648 6.943 0 13.762 1.034 20.282 3.074 18.55-34.664 54.412-56.145 93.873-56.145 3.985 0 8.113 0.28 12.997 0.876l1.216 0.185a106 106 0 0 1 10.403 1.94v-24.426c0-2.97 1.344-5.786 3.685-7.727 2.346-1.946 5.391-2.743 8.353-2.183l75.06 16.831v139.01c13.509 0.23 26.472 3.048 38.585 8.398v-148.67c-2.173-0.047-5.458-0.22-9.01-0.766-10.3-1.825-19.03-6.655-25.277-13.974a38 38 0 0 1-1.623-2.015 40 40 0 0 1-3.996-6.595c-3.44-6.996-5.143-14.823-5.053-23.256l0.082-7.809 2.538 7.386c1.344 3.91 3.356 7.745 5.975 11.392 0.347 0.513 0.72 0.962 1.091 1.412l0.61 0.752c0.665 0.83 1.342 1.647 2.08 2.436 1.192 1.31 2.24 2.35 3.3 3.29 8 7.05 18.237 10.932 28.826 10.932 4.007 0 7.18-1.244 9.986-3.916 4.427-4.212 9.155-14.764 9.155-31.748 0-23.072-3.43-29.955-8.962-33.579-2.075-1.356-4.737-1.99-8.377-1.99h-1.346v-57.203c-7.758-3.367-13.871-11.243-16.447-21.272-1.383-5.392-5.1-24.027 5.18-37.445 3.39-4.452 13.1-14.808 29.958-14.808 9.12 0 17.63 5.217 22.21 13.615 3.166 5.811 3.073 15.639-2.123 20.449-1.392 1.29-3.411 1.946-5.478 1.804-1.972-0.136-3.74-0.994-4.844-2.35-2.052-2.486-1.645-4.266-1.126-6.52l0.095-0.413c0.89-3.932-0.11-6.655-3.353-9.11-3.88-2.932-9.329-2.333-12.82-0.928-7.349 2.945-11.49 7.752-13.437 15.59-1.282 5.16-0.477 11.724 0.704 16.147 2.273 8.529 9.215 15.78 17.683 18.472 9.026 2.877 20.824 2.635 28.703-0.578m-277.24 32.584c-21.828 0-42.606 9.195-57.21 25.265 1.699 1.502 7.45 5.678 18.906 5.678 7.798 0 15.224-2.193 20.91-6.172 3.475-1.841 9.85-6.167 15.158-15.464l1.75-3.097 1.751 3.103c5.452 9.541 11.88 13.783 15.225 15.46 5.865 4.014 13.281 6.17 21.038 6.17 11.4 0 17.15-4.13 18.89-5.667-14.6-16.08-35.092-25.276-56.419-25.276m-156.58 341.91c0 34.257 32.342 62.128 72.095 62.128h276.9c39.753 0 72.095-27.871 72.095-62.128s-32.342-62.128-72.095-62.128h-30.704l3.332-10.054c2.962-8.923 4.463-18.151 4.463-27.427 0-48.185-39.2-87.386-87.388-87.386-35.885 0-67.706 21.557-81.07 54.92l-3.16 7.9-7.511-3.95c-7.108-3.737-14.767-5.63-22.764-5.63-25.741 0-46.215 20.186-48.68 48.002-1.103 12.431 2.436 22.146 2.473 22.244l0.31 0.836-7.805 0.605c-38.889 0.758-70.49 28.599-70.49 62.067m199.97-296.09c-28.109-0.092-34.897-5.018-43.783-16.923-8.86 11.905-15.643 16.831-43.783 16.923 3.966 19.726 7.876 38.375 23.565 56.108 6.322 7.211 12.898 10.714 20.113 10.714q0.087-5e-3 0.145-6e-3c0.1 0 0.145 0.01 0.168 0.012 7.111-8e-3 13.688-3.51 20.011-10.719 15.687-17.736 19.597-36.385 23.563-56.11m-43.887-183.33c-18.214 0-60.577-1.021-60.577-10.478s42.362-10.478 60.577-10.478c18.222 0 60.603 1.02 60.603 10.478s-42.38 10.477-60.603 10.477m-0.014-34.453c-58.064 0-78.753 12.907-78.753 24.986s20.69 24.987 78.753 24.987c58.104 0 78.807-12.907 78.807-24.987s-20.703-24.986-78.807-24.986m22.551 147.93c-7.342 0-13.317-5.975-13.317-13.318 0-7.35 5.975-13.33 13.317-13.33s13.318 5.98 13.318 13.33c0 7.343-5.975 13.318-13.318 13.318m-44.892 0c-7.343 0-13.318-5.975-13.318-13.318 0-7.35 5.975-13.33 13.318-13.33s13.318 5.98 13.318 13.33c0 7.343-5.974 13.318-13.318 13.318m22.46-77.989c-43.482 0-78.86 35.79-78.86 79.78v6.495c0 12.29 2.758 24.128 8.203 35.21 15.346-21.46 42.246-34.72 70.657-34.72 28.405 0 55.303 13.268 70.643 34.733 5.451-11.074 8.216-22.914 8.216-35.222v-6.496c0-43.99-35.377-79.779-78.86-79.779" style="fill:#fff"/>
</svg>
