<svg xmlns="http://www.w3.org/2000/svg" viewBox="0 0 1024 1024">
  <circle cx="512" cy="512" r="512" style="fill:#1f448c"/>
  <path d="m623.07 224h-14.52c-36.3 0-45.21 8.25-45.21 42.24v82.665c36.135 18.975 66.99 45.87 89.76 78.045-37.29-35.97-89.595-58.41-147.51-58.41-113.52 0.165-205.59 85.965-205.59 191.73 0 105.93 92.07 191.73 205.59 191.73 57.585 0 109.56-22.11 146.85-57.75-15.51 21.615-34.32 40.92-56.265 56.925q5.6925 0.495 12.375 0.495h14.52c36.3 0 45.21-8.25 45.21-42.24v-443.19c0-33.99-8.91-42.24-45.21-42.24" style="fill:#fff"/>
</svg>
