<svg xmlns="http://www.w3.org/2000/svg" viewBox="0 0 1024 1024">
  <circle cx="512" cy="512" r="512" style="fill:#06c"/>
  <path d="M512 240c-4.72 0-9.443 1.242-13.914 3.726l-211.63 122.22c-8.942 4.968-13.914 13.895-13.914 23.831v244.44c0 9.936 4.972 18.863 13.914 23.831l211.63 122.22c8.943 4.968 18.886 4.968 27.829 0l211.65-122.22c8.942-4.968 13.895-13.895 13.895-23.831v-244.44c0-9.936-4.953-18.863-13.895-23.831l-211.65-122.22c-4.471-2.484-9.195-3.726-13.914-3.726zm0 112.03h4.968c104.33 0 163.95 57.633 163.95 157.99v17.873h-279.2c4.968 60.61 44.708 103.33 110.29 105.32 42.725 0 87.434-17.881 100.35-60.606h60.626c-11.923 79.489-92.409 100.35-157.99 100.35h-2.989c-106.32-1.987-168.91-61.6-168.91-155 0-106.32 63.591-163.94 168.91-165.92zm-.99 38.755c-57.629 1.987-98.37 30.798-108.31 95.382h214.62c-.993-69.553-52.646-95.382-103.32-95.382z" style="fill:#fff"/>
</svg>
