<svg viewBox="0 0 100 100" xmlns="http://www.w3.org/2000/svg">
   <circle cx="50" cy="50" r="50" fill="#000008" style="fill:#1b1f28;fill-opacity:1"/>
   <g style="fill:#fff" fill="#1b1f28">
      <path d="M50.301 52.493V40.835h-6.169a13.197 13.197 0 0 1 7.631-2.41c7.276 0 13.196 5.877 13.196 13.098v.83h12.42v-.83c0-3.429-.68-6.758-2.017-9.898a25.318 25.318 0 0 0-5.488-8.08 25.483 25.483 0 0 0-8.14-5.444 25.554 25.554 0 0 0-9.97-2.004 25.663 25.663 0 0 0-17.394 6.761V26H22.622v14.541l15.097 11.954h12.582zm-.554.002v11.688h6.082a13.108 13.108 0 0 1-7.64 2.429c-7.261 0-13.17-5.89-13.17-13.128v-.832H22.621v.832c0 3.437.677 6.774 2.012 9.921a25.412 25.412 0 0 0 5.476 8.098 25.515 25.515 0 0 0 8.125 5.46 25.48 25.48 0 0 0 9.955 2.006A25.666 25.666 0 0 0 65.652 72.1v6.89h11.726V64.478l-15.07-11.98H49.75Z" style="fill:#fff;stroke-width:1.76635" transform="translate(0 -2.495)"/>
   </g>
</svg>
