<svg xmlns="http://www.w3.org/2000/svg" viewBox="0 0 1024 1024">
   <circle cx="512" cy="512" r="512" style="fill:#363f4d"/>
   <path d="M324.21 689.14c-6.76 0-13.59-1.86-19.71-5.75-17.15-10.91-22.22-33.65-11.31-50.81l135.13-212.54c10.91-17.15 33.65-22.22 50.81-11.31 17.15 10.91 22.22 33.65 11.31 50.81L355.31 672.08c-7.01 11.03-18.92 17.06-31.09 17.06Z" style="fill:#38bdf8"/>
   <path d="M501.79 776.86c-23.43 0-45.03-3.24-61.46-9.28-10.46-3.84-18.62-12.21-22.18-22.77s-2.16-22.16 3.83-31.56l116.73-183.21c10.92-17.14 33.67-22.18 50.82-11.26 17.14 10.92 22.18 33.67 11.26 50.82l-84.77 133.05c16.99-1.26 36.54-4.97 56.59-12.8 47.71-18.65 85.3-55.05 105.83-102.49 20.43-47.19 21.37-98.89 2.66-145.59-19.03-47.48-55.38-84.84-102.37-105.2-47-20.36-98.85-21.14-146-2.19-49.16 19.75-84.82 55.2-106 105.33-7.91 18.72-29.5 27.49-48.23 19.59-18.72-7.91-27.49-29.5-19.59-48.23 28.68-67.9 79.29-118.03 146.36-144.99 33.15-13.32 67.98-19.67 103.51-18.87 34.2.77 67.58 8.11 99.21 21.82 31.55 13.67 59.76 32.97 83.86 57.38 24.94 25.26 44.31 54.86 57.58 87.97 13.14 32.8 19.37 67.42 18.5 102.89-.84 34.23-8.22 67.64-21.93 99.32-13.75 31.75-33.13 60.08-57.62 84.19-25.53 25.14-55.46 44.52-88.96 57.61-28.44 11.12-59.63 17.45-90.21 18.33-2.48.07-4.95.11-7.39.11v.02Z" style="fill:#99f6e4"/>
</svg>
