<svg viewBox="0 0 100 100" xmlns="http://www.w3.org/2000/svg">
   <circle cx="50" cy="50" r="50" fill="#000008" style="fill:#eb0028;fill-opacity:1"/>
   <path d="M35.216 62.503c0 4.42-.02 8.821.02 13.242 0 .864-.197 1.178-1.12 1.159-3.357-.059-6.715-.04-10.072-.02-.747 0-1.002-.196-1.002-.982.02-8.763-.137-17.506.06-26.268.156-7.898 3.278-14.618 9.247-19.922 3.083-2.731 6.637-4.716 10.642-5.718 4.261-1.06 8.58-1.237 12.94-.235 9.13 2.122 15.413 7.623 19.065 16.11 1.748 4.067 2.357 8.41 1.807 12.908-1.08 8.88-5.459 15.58-12.979 20.276-4.045 2.535-8.521 3.733-13.293 3.812-2.003.02-4.005-.02-6.008.02-.707.019-.943-.236-.943-.944.02-3.418.04-6.857 0-10.275 0-.786.275-.982 1.021-.963 1.866.04 3.731.04 5.596 0 5.97-.118 10.309-2.947 13.038-8.173 4.516-8.645-.785-18.841-9.955-21.022-7.383-1.749-15.1 2.73-17.357 10.177-.452 1.473-.648 3.045-.687 4.597-.079 4.067-.02 8.154-.02 12.22z" fill="#fff" style="stroke-width:2.54505"/>
</svg>
