<?xml version="1.0" encoding="UTF-8" standalone="no"?>
<svg
   viewBox="0 0 100 100"
   width="100%"
   height="100%"
   version="1.1"
   id="svg1"
   sodipodi:docname="Redotpay.svg"
   inkscape:version="1.4.2 (f4327f4, 2025-05-13)"
   xmlns:inkscape="http://www.inkscape.org/namespaces/inkscape"
   xmlns:sodipodi="http://sodipodi.sourceforge.net/DTD/sodipodi-0.dtd"
   xmlns="http://www.w3.org/2000/svg"
   xmlns:svg="http://www.w3.org/2000/svg">
  <defs
     id="defs1" />
  <sodipodi:namedview
     id="namedview1"
     pagecolor="#ffffff"
     bordercolor="#000000"
     borderopacity="0.25"
     inkscape:showpageshadow="2"
     inkscape:pageopacity="0.0"
     inkscape:pagecheckerboard="0"
     inkscape:deskcolor="#d1d1d1"
     inkscape:zoom="5.43"
     inkscape:cx="50"
     inkscape:cy="50"
     inkscape:window-width="1304"
     inkscape:window-height="745"
     inkscape:window-x="54"
     inkscape:window-y="-8"
     inkscape:window-maximized="1"
     inkscape:current-layer="svg1" />
  <circle
     cx="50"
     cy="50"
     r="50"
     fill="#000008"
     id="circle1"
     style="fill:#eb0028;fill-opacity:1" />
  <path
     d="m 35.215821,62.502742 c 0,4.420491 -0.0196,8.821384 0.01985,13.242129 0,0.864298 -0.196477,1.178611 -1.119311,1.159014 -3.357679,-0.05879 -6.715104,-0.03919 -10.072757,-0.0196 -0.746131,0 -1.001374,-0.196477 -1.001374,-0.982388 0.01962,-8.762593 -0.137458,-17.505589 0.05889,-26.268183 0.15708,-7.898041 3.279037,-14.617217 9.247959,-19.921984 3.082814,-2.730936 6.636716,-4.715283 10.642364,-5.717293 4.260662,-1.060928 8.580368,-1.237757 12.939269,-0.235773 9.130352,2.121881 15.413562,7.622998 19.065703,16.110472 1.747428,4.066984 2.356203,8.409087 1.806473,12.908219 -1.080117,8.880429 -5.458614,15.580008 -12.978716,20.275872 -4.044842,2.534357 -8.521578,3.732819 -13.29303,3.811461 -2.002697,0.0196 -4.005393,-0.0196 -6.008344,0.0196 -0.70676,0.0196 -0.942431,-0.235671 -0.942431,-0.942939 0.0196,-3.418761 0.03919,-6.856863 0,-10.275624 0,-0.78591 0.274865,-0.982133 1.021072,-0.962536 1.865265,0.03919 3.730529,0.03919 5.596048,0 5.968896,-0.117836 10.308199,-2.947163 13.037507,-8.173161 4.516184,-8.644757 -0.785401,-18.841484 -9.954948,-21.022334 -7.382669,-1.748701 -15.099249,2.730834 -17.357213,10.17713 -0.451746,1.473582 -0.647969,3.045147 -0.687163,4.597371 -0.07864,4.066983 -0.01985,8.153564 -0.01985,12.220547 z"
     fill="#ffffff"
     id="path1-5"
     style="stroke-width:2.54505" />
</svg>
