<svg xmlns="http://www.w3.org/2000/svg" viewBox="0 0 1024 1024">
  <circle cx="512" cy="512" r="512" style="fill:#00b8be"/>
  <path d="M607.9 741.57c-48.531-39.923-75.599-90.596-86.337-114.14-1.026-2.566-3.566-9.211-7.146-18.422 14.817-1.026 16.344-1.54 17.37-1.54 51.597-10.737 87.363-59.37 77.14-116.69 0-1.539-.514-2.565-1.027-4.105-10.725-39.91-41.372-66.529-78.665-73.175a102.6 102.6 0 0 0-17.37-1.54c-48.018 0-88.389 34.292-97.062 81.373L365.246 739c0 .513-.513.513-.513.513a295 295 0 0 1-20.436-14.317c-27.068-20.988-39.333-55.292-32.687-89.057l32.187-155.1a171.01 171.01 0 0 1 168.57-140.73c10.224 0 19.936 1.026 30.147 2.553 1.54 0 2.566.513 4.092.513a168.06 168.06 0 0 1 107.27 71.648c25.542 37.37 35.253 82.411 27.068 126.43-6.632 37.357-25.016 70.622-53.624 96.728l-3.079 3.079 2.566 3.58c4.593 5.631 8.685 11.263 12.765 15.868 20.436 22.514 40.872 36.331 63.861 42.976.513 0 .513.513.513.513v.514a244 244 0 0 1-27.582 24.067c-11.75 8.697-26.055 13.816-40.872 13.816zm95.022-78.806a59.78 59.78 0 0 1-39.333-14.856l-3.079-3.079c40.885-45.029 57.73-103.89 49.057-166.85a161.6 161.6 0 0 0-6.645-27.12c-24.516-72.674-82.758-123.86-155.8-136.65q-17.627-3.079-35.253-3.079c-97.062 0-179.31 69.095-196.68 164.81l-34.753 175.53c0 .513-.513.513-.513.513h-.513a274.8 274.8 0 0 1-34.727-187.81 270.94 270.94 0 0 1 267.18-224.18c21.449 0 43.425 2.553 64.36 7.672 133.85 32.238 223.76 164.81 204.86 301.47-3.579 27.633-11.75 53.726-23.501 78.806a60.42 60.42 0 0 1-54.65 34.804" style="fill:#fff"/>
</svg>
